<svg width="114" height="89" viewBox="0 0 114 89" fill="none" xmlns="http://www.w3.org/2000/svg">
<g filter="url(#filter0_d_1_239)">
<path d="M55.31 14.1623C47.4144 9.46699 34.3943 20.7764 31.086 23.8585C31.7534 21.9039 32.9095 20.1507 34.4455 18.7642C34.4815 18.736 34.5103 18.6999 34.5296 18.6585C34.5488 18.6172 34.558 18.5719 34.5563 18.5264C34.5564 18.4826 34.5456 18.4395 34.5247 18.401C34.5039 18.3624 34.4737 18.3297 34.437 18.3057C33.7056 17.8134 32.8469 17.5421 31.9643 17.5245C32.4185 16.9673 33.002 16.5285 33.6645 16.246C34.3271 15.9635 35.0487 15.8457 35.7671 15.9028C35.8201 15.9106 35.8743 15.9027 35.9228 15.8801C35.9713 15.8574 36.0121 15.821 36.04 15.7755C36.0669 15.729 36.0811 15.6763 36.0811 15.6227C36.0811 15.569 36.0669 15.5163 36.04 15.4698C35.6914 14.9448 35.2098 14.5206 34.6439 14.2403C34.078 13.9601 33.4477 13.8335 32.8169 13.8736C33.9339 13.0245 36.4663 12.7189 37.4895 12.6849C37.5441 12.6844 37.5973 12.668 37.6427 12.6379C37.6881 12.6077 37.7238 12.5651 37.7453 12.5151C37.7662 12.4664 37.7733 12.413 37.7658 12.3606C37.7583 12.3082 37.7364 12.2588 37.7026 12.2179C36.7152 11.0743 35.3154 10.3637 33.806 10.2396C35.2214 8.54152 39.4165 8.03207 39.4591 8.02358C39.519 8.019 39.5757 7.9949 39.6204 7.95499C39.6651 7.91508 39.6953 7.8616 39.7064 7.80284C39.7204 7.76996 39.7278 7.73462 39.7281 7.69889C39.7284 7.66315 39.7217 7.62772 39.7082 7.59459C39.6948 7.56147 39.6749 7.53131 39.6497 7.50585C39.6245 7.48039 39.5945 7.46013 39.5614 7.44623C38.2307 6.60239 36.7219 6.07642 35.1532 5.90943C36.8585 3.80377 42.2814 2.5132 42.3411 2.5132C42.3989 2.49972 42.4512 2.46886 42.4909 2.42482C42.5305 2.38078 42.5556 2.32568 42.5628 2.26697C42.5695 2.20905 42.5584 2.15046 42.531 2.09894C42.5036 2.04741 42.4612 2.00535 42.4093 1.97829C38.777 0.0933849 34.3432 1.92735 34.1385 1.97829C29.0226 4.52547 28.7924 12.9736 29.3295 18.8236C27.3173 11.717 22.9431 0.58585 15.2096 0C14.9538 0 8.92547 -1.98383e-05 5.61716 3.88017C5.58377 3.9274 5.56585 3.98374 5.56585 4.0415C5.56585 4.09925 5.58377 4.1556 5.61716 4.20282C5.64698 4.25358 5.69123 4.2944 5.74435 4.32009C5.79748 4.34579 5.85707 4.35522 5.91557 4.34717C5.99231 4.34717 13.1973 3.18395 16.1475 4.96697C14.3478 5.8962 12.8003 7.24488 11.6369 8.89811C11.6021 8.94794 11.5834 9.00721 11.5834 9.06793C11.5834 9.12865 11.6021 9.1879 11.6369 9.23773C11.6716 9.28631 11.7206 9.32303 11.7771 9.3428C11.8336 9.36256 11.8948 9.3644 11.9524 9.34811C12.0121 9.34811 17.3582 7.86227 19.8139 9.30567C18.9493 9.723 18.1773 10.3083 17.5432 11.0272C16.9092 11.746 16.4259 12.5839 16.1219 13.4915C16.1043 13.5431 16.1022 13.5987 16.1158 13.6515C16.1294 13.7043 16.1582 13.752 16.1986 13.7887C16.2368 13.827 16.2856 13.8531 16.3388 13.8637C16.3919 13.8743 16.447 13.8689 16.4971 13.8481C17.7675 13.3811 21.0758 12.4557 22.7812 13.084C21.996 13.3115 21.2881 13.7479 20.7337 14.3464C20.1793 14.9448 19.7993 15.6826 19.6348 16.4802C19.6266 16.5334 19.6333 16.5877 19.6544 16.6372C19.6755 16.6867 19.7101 16.7294 19.7542 16.7604C19.8009 16.7872 19.8538 16.8013 19.9077 16.8013C19.9616 16.8013 20.0145 16.7872 20.0612 16.7604C20.9046 16.328 21.8441 16.1152 22.7924 16.1419C23.7406 16.1687 24.6666 16.434 25.4841 16.9132C24.4195 17.3425 23.508 18.0787 22.8664 19.0274C22.8455 19.0666 22.8346 19.1103 22.8346 19.1547C22.8346 19.1991 22.8455 19.2429 22.8664 19.2821C22.8822 19.324 22.9073 19.3617 22.9397 19.3926C22.9722 19.4235 23.0113 19.4466 23.054 19.4604C25.5637 20.357 27.7966 21.8871 29.5342 23.901C25.3221 22.2793 11.0315 17.3972 6.01789 23.901C5.89851 24.0793 3.07622 28.3161 4.31257 32.468C4.3296 32.5236 4.36315 32.5729 4.4088 32.6093C4.45445 32.6456 4.51011 32.6674 4.56841 32.6717H4.61103C4.66214 32.6663 4.71097 32.6478 4.7528 32.6181C4.79462 32.5883 4.82801 32.5483 4.84975 32.5019C4.84975 32.4425 7.33954 26.9746 9.91456 25.7095C9.76097 27.3842 10.0064 29.0714 10.6308 30.634C10.6506 30.6899 10.6877 30.738 10.7367 30.7716C10.7857 30.8051 10.8442 30.8224 10.9036 30.8208C10.9649 30.8199 11.0243 30.7997 11.0733 30.7631C11.1223 30.7265 11.1585 30.6753 11.1765 30.617C11.1765 30.5746 12.5834 26.2614 14.6809 25.1491C14.5875 25.9434 14.6524 26.7482 14.8719 27.5175C15.0913 28.2867 15.4611 29.0054 15.9599 29.6321C15.9941 29.6738 16.0396 29.7047 16.091 29.7213C16.1424 29.7378 16.1976 29.7393 16.2498 29.7255C16.3023 29.7149 16.3506 29.6891 16.3885 29.6513C16.4264 29.6136 16.4523 29.5656 16.463 29.5132C16.7102 28.4434 17.5373 25.8113 18.7055 24.8434C18.5272 25.4951 18.5265 26.1824 18.7033 26.8345C18.8801 27.4865 19.2281 28.08 19.7116 28.5538C19.7514 28.5894 19.8001 28.6138 19.8526 28.6242C19.9051 28.6347 19.9595 28.6309 20.01 28.6132C20.061 28.5933 20.1054 28.5597 20.1385 28.5163C20.1716 28.4729 20.192 28.4212 20.1976 28.367C20.2874 27.5997 20.5633 26.8656 21.0015 26.228C21.4397 25.5905 22.0271 25.0687 22.7129 24.7076C22.5431 25.6347 22.6498 26.5911 23.0199 27.4585C23.037 27.4993 23.0637 27.5352 23.0979 27.5633C23.1321 27.5914 23.1726 27.6108 23.216 27.6198C23.259 27.6293 23.3037 27.6289 23.3465 27.6186C23.3894 27.6083 23.4293 27.5884 23.4633 27.5604C24.137 27.0342 24.8729 26.5923 25.6546 26.2444C25.3132 26.5581 25.0481 26.9452 24.8797 27.3763C24.7112 27.8074 24.6438 28.2711 24.6826 28.7321C24.752 29.5415 25.1412 30.2903 25.7647 30.814C26.3883 31.3378 27.1951 31.5937 28.0079 31.5255C28.6762 31.4671 29.306 31.1894 29.7985 30.7359C30.5233 32.6208 33.2944 41.6548 28.6048 59.6038C22.2781 61.4972 21.2719 63.484 20.3937 65.2416C20.1089 65.8802 19.7295 66.4726 19.2682 66.9991C18.8225 67.6266 18.5588 68.3642 18.5062 69.131C18.4535 69.8978 18.6139 70.6643 18.9698 71.3463C20.1379 73.7746 23.9834 76.4406 35.6307 75.4642C43.6457 74.785 48.5825 72.9171 50.3049 69.9114C50.6545 69.3357 50.8643 68.6867 50.9176 68.016C50.9709 67.3453 50.8662 66.6715 50.6119 66.0482C48.9065 61.9897 44.5409 58.7038 40.38 58.3048C39.7149 51.7585 37.6771 36.4161 32.851 30.2859C33.0551 30.3071 33.2609 30.3071 33.4649 30.2859C34.2784 30.2146 35.0304 29.8252 35.5562 29.203C36.082 28.5808 36.3388 27.7764 36.2702 26.9661C36.2172 26.3571 35.9815 25.778 35.5937 25.3041C35.206 24.8302 34.6841 24.4833 34.0959 24.3085C35.7384 24.1664 37.3932 24.3189 38.9816 24.7585C39.0201 24.7773 39.0624 24.787 39.1053 24.787C39.1481 24.787 39.1904 24.7773 39.2289 24.7585C39.2667 24.7349 39.2982 24.7025 39.3204 24.664C39.3427 24.6255 39.3552 24.5822 39.3568 24.5378C39.3782 23.4818 39.0812 22.4437 38.5041 21.5576C39.3706 21.639 40.203 21.9339 40.9264 22.4156C41.6499 22.8973 42.2415 23.5508 42.648 24.317C42.6716 24.3648 42.708 24.4051 42.7531 24.4335C42.7983 24.462 42.8504 24.4775 42.9039 24.4783C42.9573 24.4775 43.0094 24.462 43.0546 24.4335C43.0997 24.4051 43.1361 24.3648 43.1596 24.317C43.4691 23.6297 43.585 22.8716 43.4948 22.1237C43.4047 21.3759 43.112 20.6666 42.648 20.0717C44.251 20.5387 46.2292 22.9585 46.9113 23.9774C46.9406 24.0195 46.9804 24.0533 47.0267 24.0757C47.073 24.098 47.1243 24.108 47.1757 24.1047C47.2298 24.0967 47.2804 24.0732 47.3213 24.037C47.3622 24.0008 47.3916 23.9535 47.4059 23.901C47.6585 23.0589 47.7418 22.1755 47.6511 21.3014C47.5604 20.4272 47.2974 19.5794 46.8772 18.8066C49.4949 19.0613 52.7179 22.9755 52.752 23.0519C52.7903 23.0982 52.8417 23.1319 52.8995 23.1486C52.9573 23.1652 53.0189 23.1641 53.076 23.1453C53.1344 23.1264 53.1847 23.0885 53.2187 23.0376C53.2527 22.9868 53.2686 22.926 53.2636 22.8651C53.2708 21.0034 52.8324 19.1669 51.9846 17.5076C55.148 17.7453 59.9485 22.4151 59.9996 22.4661C60.0415 22.5072 60.0953 22.5343 60.1534 22.5434C60.2115 22.5525 60.2711 22.5433 60.3236 22.517C60.3764 22.4927 60.4203 22.4527 60.4493 22.4025C60.4783 22.3524 60.491 22.2945 60.4856 22.2368C60.119 17.5076 55.5232 14.3066 55.31 14.1623ZM40.056 61.3784C39.9444 62.2705 39.577 63.1117 38.9979 63.8013C38.4187 64.491 37.6523 64.9998 36.7903 65.2671C34.3687 66.1161 30.9496 65.5557 29.3295 64.0444C28.9996 63.7776 28.7529 63.4226 28.6185 63.021C28.4841 62.6194 28.4675 62.188 28.5707 61.7774L28.7753 61.0302C30.8725 61.8064 33.1061 62.1501 35.3408 62.0406C37.0813 61.9708 38.7276 61.2348 39.9366 59.9859C40.0133 60.7586 40.0474 61.251 40.056 61.3784ZM39.8599 59.1708C36.9353 63.085 30.2589 60.9539 28.9203 60.4699C29.3125 59.0265 29.6564 57.6397 29.952 56.3095C31.4589 57.2359 33.2282 57.6473 34.9912 57.4812C36.5891 57.3124 38.1311 56.7996 39.5103 55.9784C39.6552 57.218 39.7746 58.3048 39.8599 59.1708ZM39.4335 55.3585C34.3176 58.4152 30.8047 56.2076 30.0543 55.7067C30.3442 54.3736 30.583 53.1001 30.7961 51.8859C32.1709 52.3279 33.6191 52.4981 35.0594 52.3868C36.3765 52.2829 37.6544 51.8915 38.8026 51.2406C39.0839 52.7095 39.2715 54.1444 39.4335 55.3585ZM30.907 51.3086C31.1201 50.035 31.2907 48.8123 31.4186 47.6661C32.5468 48.077 33.7517 48.2364 34.9486 48.1331C36.0668 48.0387 37.1515 47.7056 38.129 47.1566C38.3592 48.3368 38.5553 49.5 38.7344 50.6293C37.5516 51.2773 36.246 51.6724 34.9011 51.7894C33.5563 51.9063 32.2017 51.7426 30.924 51.3086H30.907ZM31.4782 47.0633C31.5891 45.9765 31.6744 44.9406 31.7255 43.9642C32.6888 44.2827 33.7068 44.404 34.7183 44.3208C35.6547 44.2377 36.5606 43.9477 37.3701 43.4717C37.6003 44.4821 37.822 45.5095 38.0181 46.5199C37.0403 47.0885 35.9475 47.4331 34.8192 47.5286C33.6909 47.624 32.5555 47.468 31.4953 47.0718L31.4782 47.0633ZM31.7596 43.3614C31.7596 42.4529 31.8108 41.5953 31.8022 40.8142C32.4321 40.9283 33.0742 40.9597 33.7122 40.9076C34.6967 40.8414 35.6424 40.5001 36.4407 39.9227C36.7221 40.9076 36.9864 41.918 37.2252 42.9368C36.4029 43.3982 35.4896 43.676 34.5488 43.7508C33.6079 43.8255 32.662 43.6956 31.7767 43.3699L31.7596 43.3614ZM31.8022 40.1944C31.8022 39.184 31.734 38.2585 31.6573 37.4095C32.1157 37.5128 32.5875 37.5443 33.0557 37.5029C33.9006 37.427 34.7114 37.1345 35.409 36.6538C35.7074 37.5029 35.9973 38.3519 36.2617 39.2774C35.6272 39.7322 34.9041 40.0495 34.139 40.209C33.3738 40.3684 32.5836 40.3663 31.8193 40.2029L31.8022 40.1944ZM31.6062 36.7982C31.5323 36.0849 31.447 35.4312 31.3503 34.8368C31.6197 34.8631 31.891 34.8631 32.1604 34.8368C32.9476 34.7821 33.6984 34.4855 34.3091 33.9878C34.6245 34.6585 34.9145 35.3717 35.2044 36.1104C34.7007 36.4915 34.1159 36.7524 33.495 36.8731C32.8742 36.9938 32.2338 36.9711 31.6232 36.8066L31.6062 36.7982ZM31.2566 34.251C31.1287 33.5717 31.0008 32.9859 30.8729 32.4849C31.0487 32.502 31.2257 32.502 31.4015 32.4849C32.045 32.4411 32.6508 32.1666 33.1068 31.7123C33.4627 32.2596 33.7872 32.8266 34.0789 33.4104C33.7041 33.7507 33.2578 34.0035 32.7725 34.1504C32.2872 34.2973 31.7752 34.3345 31.2736 34.2595L31.2566 34.251ZM30.7023 31.8736C30.5403 31.3132 30.3954 30.8972 30.2845 30.6085H30.6512C31.1034 30.5671 31.5406 30.425 31.9301 30.1925C32.2342 30.5181 32.5189 30.8611 32.7828 31.2198C32.5282 31.5018 32.2031 31.7115 31.8407 31.8279C31.4783 31.9442 31.0914 31.9629 30.7194 31.8821L30.7023 31.8736ZM31.8193 29.5896C31.5394 29.7807 31.2241 29.9144 30.8918 29.9829C30.5595 30.0514 30.2168 30.0534 29.8838 29.9887C29.356 29.8808 28.8774 29.6059 28.5194 29.205C28.1614 28.8041 27.9431 28.2987 27.8971 27.7642C27.8678 27.4434 27.9024 27.12 27.999 26.8125C28.0955 26.5051 28.2522 26.2197 28.4598 25.9727C28.668 25.7154 28.9265 25.5029 29.2196 25.3482C29.5128 25.1935 29.8345 25.0997 30.1652 25.0727H30.5318C30.8481 25.0885 31.1582 25.1664 31.4441 25.3019C31.8399 25.4877 32.1797 25.7737 32.4296 26.1313C32.6795 26.4889 32.8307 26.9056 32.8681 27.3396C32.9114 27.7733 32.8388 28.2106 32.6576 28.6072C32.4764 29.0039 32.1931 29.3457 31.8364 29.5981L31.8193 29.5896ZM34.3773 2.56415C35.4711 2.14213 36.6193 1.8763 37.7879 1.77453C39.0091 1.64814 40.2432 1.79016 41.4032 2.19056C39.6211 2.68301 35.4346 4.02454 34.3773 6.07926C34.35 6.12251 34.3356 6.17252 34.3356 6.22358C34.3356 6.27464 34.35 6.32468 34.3773 6.36793C34.4039 6.41065 34.4419 6.44515 34.4871 6.46764C34.5322 6.49012 34.5828 6.4997 34.6331 6.49529C35.9967 6.52776 37.3316 6.89214 38.5212 7.55661C37.0035 7.8368 33.8913 8.60096 32.9875 10.35C32.9628 10.3926 32.9497 10.4409 32.9497 10.4901C32.9497 10.5393 32.9628 10.5876 32.9875 10.6302C33.0137 10.6738 33.0514 10.7095 33.0964 10.7334C33.1415 10.7574 33.1922 10.7687 33.2432 10.766C34.5551 10.7721 35.8196 11.2552 36.7988 12.1245C35.5028 12.2349 32.5782 12.6509 31.8278 14.0689C31.7991 14.1147 31.7839 14.1677 31.7839 14.2217C31.7839 14.2758 31.7991 14.3287 31.8278 14.3745C31.8583 14.421 31.9027 14.4567 31.9548 14.4766C32.0069 14.4964 32.0639 14.4993 32.1177 14.4849C32.6498 14.3785 33.1996 14.4 33.7216 14.5477C34.2436 14.6953 34.7227 14.9649 35.1191 15.334C34.2985 15.3484 33.4955 15.5731 32.7876 15.9866C32.0796 16.4 31.4906 16.9882 31.0775 17.6944C31.0504 17.7392 31.0361 17.7906 31.0361 17.8429C31.0361 17.8953 31.0504 17.9467 31.0775 17.9915C31.1069 18.0356 31.1479 18.0708 31.196 18.0933C31.2441 18.1157 31.2975 18.1246 31.3503 18.1189C32.1561 18.0635 32.9622 18.2216 33.6866 18.5774C32.2384 19.9721 31.1376 21.6847 30.4721 23.5783C29.8667 19.5028 27.9738 5.79057 34.4455 2.57264L34.3773 2.56415ZM23.4888 19.1208C24.1784 18.3057 25.0816 17.6973 26.098 17.3632C26.1491 17.3487 26.1953 17.3204 26.2314 17.2814C26.2675 17.2425 26.2922 17.1944 26.3026 17.1425C26.3109 17.0902 26.305 17.0366 26.2855 16.9873C26.266 16.9381 26.2336 16.8949 26.1918 16.8623C25.3479 16.2323 24.3541 15.8314 23.3078 15.6989C22.2615 15.5664 21.1986 15.707 20.2232 16.1066C20.9138 13.984 23.3439 13.5595 23.4547 13.5085C23.5093 13.5016 23.5604 13.4784 23.6015 13.442C23.6426 13.4057 23.6717 13.3578 23.685 13.3047C23.6975 13.2514 23.6954 13.1956 23.6789 13.1433C23.6624 13.0911 23.6321 13.0442 23.5912 13.0075C22.0052 11.683 18.2279 12.7104 16.7699 13.1774C17.4837 11.6024 18.7735 10.3575 20.3767 9.69623C20.4251 9.67989 20.4682 9.6507 20.5013 9.61181C20.5343 9.57291 20.5561 9.52579 20.5642 9.47549C20.5729 9.426 20.5689 9.3751 20.5525 9.32759C20.5361 9.28007 20.5079 9.23748 20.4704 9.20378C18.5264 7.54812 14.2972 8.25284 12.5066 8.6519C13.6086 7.2191 15.0579 6.08845 16.7187 5.36602C16.7667 5.34891 16.8094 5.31948 16.8423 5.28073C16.8752 5.24197 16.8973 5.19526 16.9063 5.14529C16.9168 5.09579 16.9136 5.04439 16.8971 4.99656C16.8806 4.94872 16.8514 4.90622 16.8126 4.87358C14.5019 2.93773 8.71231 3.45564 6.58067 3.71885C9.80371 0.6113 15.1072 0.628294 15.1584 0.628294C24.4694 1.3415 28.8776 18.9594 29.8838 23.6547C28.1663 21.6518 25.9824 20.0981 23.523 19.1293L23.4888 19.1208ZM23.361 26.9746C23.1346 26.1405 23.1346 25.2615 23.361 24.4274C23.3768 24.377 23.378 24.3231 23.3644 24.272C23.3508 24.2209 23.323 24.1747 23.2842 24.1387C23.2471 24.1015 23.2003 24.0754 23.149 24.0634C23.0978 24.0514 23.0442 24.0539 22.9943 24.0708C22.1679 24.3641 21.431 24.8641 20.8547 25.5228C20.2783 26.1815 19.8817 26.9767 19.703 27.8321C19.3874 27.3374 19.1969 26.7738 19.1479 26.1897C19.0989 25.6056 19.1928 25.0184 19.4217 24.4783C19.4507 24.4341 19.4661 24.3825 19.4661 24.3297C19.4661 24.277 19.4507 24.2253 19.4217 24.1811C19.3851 24.1403 19.3377 24.1106 19.2848 24.0956C19.232 24.0806 19.176 24.0808 19.1232 24.0962C17.4691 24.5802 16.4459 27.5944 16.0793 28.8934C15.3406 27.6894 15.0792 26.2545 15.346 24.8689C15.3566 24.8201 15.3543 24.7695 15.3393 24.7219C15.3244 24.6742 15.2973 24.6313 15.2607 24.5972C15.2255 24.5599 15.1802 24.5335 15.1302 24.5215C15.0802 24.5094 15.0278 24.5121 14.9793 24.5293C12.95 25.1151 11.509 28.2651 10.9292 29.768C10.46 28.3745 10.34 26.888 10.5796 25.4378C10.5938 25.3885 10.5941 25.3364 10.5806 25.287C10.567 25.2376 10.5402 25.1928 10.5029 25.1576C10.4666 25.1219 10.4212 25.0968 10.3716 25.0848C10.3221 25.0728 10.2702 25.0745 10.2215 25.0896C7.82554 25.8029 5.55746 29.9293 4.69628 31.6529C4.07384 28.0104 6.47832 24.3934 6.49537 24.3679C7.94489 22.5 10.2727 21.6595 12.9329 21.4302C18.9442 20.9208 26.5755 23.5698 29.3978 24.6311C27.2264 24.9211 25.1565 25.7247 23.361 26.9746ZM28.3064 25.4038L28.1614 25.5396H27.9056L28.3064 25.4038ZM25.2112 28.8C25.1832 28.4738 25.2201 28.1452 25.3199 27.8332C25.4196 27.5212 25.5803 27.2319 25.7926 26.9818C26.0049 26.7318 26.2647 26.5259 26.557 26.376C26.8494 26.2262 27.1686 26.1353 27.4963 26.1085H27.7521V26.151C27.7521 26.1934 27.7095 26.2444 27.6839 26.2868C27.6256 26.4025 27.5744 26.5216 27.5305 26.6434L27.4793 26.8217C27.4448 26.9414 27.4191 27.0634 27.4025 27.1868V27.3481C27.3855 27.5317 27.3855 27.7165 27.4025 27.9C27.4156 28.0547 27.4413 28.208 27.4793 28.3585C27.4793 28.4095 27.4793 28.4604 27.5219 28.5113L27.6242 28.8L27.701 28.9613C27.7413 29.0461 27.7869 29.1284 27.8374 29.2076L27.9397 29.3689C27.9889 29.4432 28.043 29.5141 28.1017 29.5812L28.2296 29.7255C28.2907 29.7948 28.3562 29.86 28.4257 29.9208L28.5707 30.0396C28.6438 30.101 28.7207 30.1577 28.8009 30.2095L28.9458 30.3029C29.0687 30.3724 29.1971 30.432 29.3295 30.4812C28.9355 30.8145 28.4465 31.0164 27.9312 31.0585C27.5971 31.0899 27.26 31.0541 26.94 30.9534C26.6201 30.8526 26.3237 30.6889 26.0684 30.4719C25.8132 30.255 25.6042 29.9892 25.4541 29.6903C25.3039 29.3914 25.2155 29.0656 25.1942 28.7321L25.2112 28.8ZM50.0662 66.4048C50.2839 66.9553 50.3702 67.5485 50.3184 68.1379C50.2667 68.7272 50.0781 69.2966 49.7677 69.801C48.6508 71.7369 45.2742 74.2246 35.5539 75.0567C23.6167 76.0671 20.3511 73.1124 19.4558 71.2529C19.1557 70.6736 19.0165 70.0251 19.0525 69.3742C19.0884 68.7234 19.2983 68.094 19.6604 67.551C20.1614 66.9838 20.5752 66.3457 20.8883 65.6576C21.7409 63.9595 22.6362 62.2105 28.4002 60.419C28.2893 60.852 28.1699 61.268 28.0506 61.7265C27.9099 62.2371 27.9221 62.7775 28.0857 63.2814C28.2493 63.7852 28.5571 64.2304 28.9714 64.5623C29.8237 65.2389 30.8016 65.7417 31.8492 66.0418C32.8967 66.3419 33.9933 66.4335 35.0764 66.3114C35.7388 66.2552 36.3917 66.1184 37.0205 65.9039C37.9864 65.6012 38.8443 65.0279 39.4915 64.2524C40.1387 63.4769 40.5478 62.5322 40.6699 61.5312V61.4718C40.6699 61.2935 40.5931 60.4104 40.4567 59.0435C42.5349 59.3791 44.4978 60.2203 46.1712 61.4926C47.8445 62.7649 49.1766 64.4289 50.0491 66.3369L50.0662 66.4048ZM35.6904 27.1783C35.7184 27.5039 35.6818 27.8318 35.5826 28.1433C35.4834 28.4548 35.3235 28.7438 35.112 28.9937C34.9006 29.2437 34.6418 29.4497 34.3504 29.6C34.059 29.7504 33.7408 29.842 33.4138 29.8698C33.1278 29.8974 32.8391 29.8744 32.5611 29.8019C32.6123 29.7595 32.6464 29.7085 32.6976 29.6576L32.7658 29.5812C32.8425 29.4878 32.9192 29.3859 32.9875 29.284C33.0471 29.1906 33.0983 29.0887 33.1495 28.9953L33.2006 28.8849C33.2006 28.8085 33.2603 28.7321 33.2859 28.6472C33.3115 28.5623 33.2859 28.5623 33.3285 28.5198C33.3534 28.4419 33.3733 28.3625 33.3882 28.2821V28.1548V27.9C33.3921 27.8605 33.3921 27.8207 33.3882 27.7812C33.3967 27.654 33.3967 27.5263 33.3882 27.3991C33.3882 27.2717 33.3882 27.1529 33.3285 27.0255C33.2688 26.8981 33.3285 26.9491 33.3285 26.9066C33.3285 26.8642 33.2859 26.7453 33.2603 26.6689L33.2091 26.5331C33.1815 26.4608 33.1502 26.3899 33.1153 26.3208C33.096 26.2766 33.0732 26.234 33.0471 26.1934C33.0471 26.1255 32.9704 26.0576 32.9278 25.9896L32.851 25.8793C32.7987 25.8 32.7388 25.7261 32.672 25.6585L32.6208 25.5906C32.5398 25.5043 32.4544 25.4221 32.365 25.3444L32.2627 25.2679L32.1177 25.1491C32.372 25.0383 32.6427 24.9695 32.9192 24.9453C33.5719 24.8733 34.2268 25.0602 34.7422 25.4654C35.2576 25.8705 35.5921 26.4615 35.6733 27.1104L35.6904 27.1783ZM51.4986 16.9896C51.4484 16.9942 51.4001 17.0114 51.3584 17.0397C51.3166 17.0679 51.2827 17.1062 51.2599 17.151C51.2352 17.1951 51.2223 17.2448 51.2223 17.2953C51.2223 17.3458 51.2352 17.3955 51.2599 17.4396C52.1128 18.8555 52.5992 20.4601 52.6753 22.1094C51.5072 20.8359 48.7275 18.1189 46.3912 18.3227C46.3417 18.3262 46.2942 18.343 46.2536 18.3715C46.213 18.3999 46.181 18.4388 46.161 18.484C46.1363 18.5281 46.1234 18.5778 46.1234 18.6283C46.1234 18.6788 46.1363 18.7285 46.161 18.7727C46.9981 20.1146 47.3021 21.7193 47.0136 23.2727C46.161 22.118 43.8418 19.3755 41.9403 19.5453C41.885 19.5477 41.8316 19.5669 41.7874 19.6003C41.7432 19.6337 41.7103 19.6796 41.6931 19.7321C41.6721 19.7826 41.6673 19.8383 41.6796 19.8915C41.6918 19.9447 41.7203 19.9929 41.7613 20.0293C42.2237 20.5002 42.5622 21.0775 42.7466 21.7099C42.9311 22.3424 42.9558 23.0105 42.8186 23.6547C42.289 22.8494 41.5612 22.1925 40.7045 21.7466C39.8478 21.3008 38.8906 21.0808 37.9243 21.1076C37.8705 21.111 37.8185 21.1285 37.7736 21.1583C37.7286 21.1881 37.6924 21.2292 37.6685 21.2774C37.6476 21.326 37.6405 21.3795 37.648 21.4319C37.6555 21.4843 37.6774 21.5337 37.7112 21.5746C38.2952 22.3573 38.6494 23.2861 38.7344 24.2576C37.1467 23.8635 35.5038 23.7372 33.8742 23.884C33.0846 23.9565 32.3011 24.0842 31.5294 24.2661C34.94 21.167 47.602 10.316 54.9689 14.7057C55.0116 14.7057 59.0105 17.516 59.8035 21.5576C58.3199 20.1142 54.2527 16.7094 51.4986 16.9472V16.9896Z" fill="#999999"/>
<path d="M104.336 19.4909C96.4408 14.7956 83.4207 26.105 80.1124 29.1871C80.7797 27.2325 81.9359 25.4793 83.4719 24.0928C83.5079 24.0647 83.5367 24.0285 83.5559 23.9872C83.5752 23.9458 83.5844 23.9006 83.5827 23.855C83.5828 23.8113 83.572 23.7681 83.5511 23.7296C83.5303 23.6911 83.5001 23.6583 83.4633 23.6343C82.7319 23.142 81.8732 22.8707 80.9906 22.8532C81.4448 22.2959 82.0284 21.8571 82.6909 21.5746C83.3534 21.2921 84.075 21.1743 84.7935 21.2314C84.8465 21.2392 84.9006 21.2313 84.9491 21.2087C84.9977 21.186 85.0384 21.1497 85.0663 21.1041C85.0933 21.0576 85.1075 21.0049 85.1075 20.9513C85.1075 20.8976 85.0933 20.8449 85.0663 20.7984C84.7178 20.2734 84.2362 19.8492 83.6703 19.569C83.1043 19.2887 82.4741 19.1622 81.8433 19.2022C82.9603 18.3532 85.4927 18.0475 86.5158 18.0135C86.5704 18.013 86.6237 17.9966 86.6691 17.9665C86.7145 17.9363 86.7501 17.8937 86.7716 17.8437C86.7926 17.7951 86.7997 17.7416 86.7922 17.6892C86.7846 17.6368 86.7628 17.5874 86.729 17.5465C85.7416 16.4029 84.3418 15.6923 82.8324 15.5682C84.2478 13.8701 88.4428 13.3607 88.4855 13.3522C88.5453 13.3476 88.602 13.3235 88.6467 13.2836C88.6914 13.2437 88.7217 13.1902 88.7328 13.1315C88.7468 13.0986 88.7542 13.0632 88.7545 13.0275C88.7548 12.9918 88.748 12.9563 88.7346 12.9232C88.7211 12.8901 88.7012 12.8599 88.676 12.8345C88.6508 12.809 88.6209 12.7887 88.5878 12.7748C87.257 11.931 85.7483 11.405 84.1796 11.238C85.8849 9.13238 91.3078 7.84182 91.3675 7.84182C91.4253 7.82833 91.4776 7.79747 91.5172 7.75343C91.5569 7.7094 91.582 7.6543 91.5891 7.59558C91.5958 7.53766 91.5848 7.47908 91.5574 7.42755C91.53 7.37602 91.4875 7.33396 91.4357 7.30691C87.8033 5.422 83.3695 7.25596 83.1649 7.30691C78.049 9.85408 77.8187 18.3022 78.3559 24.1522C76.3436 17.0456 71.9695 5.91446 64.2359 5.32861C63.9801 5.32861 57.9518 5.32859 54.6435 9.20879C54.6101 9.25601 54.5922 9.31236 54.5922 9.37011C54.5922 9.42787 54.6101 9.48421 54.6435 9.53143C54.6733 9.5822 54.7176 9.62301 54.7707 9.64871C54.8238 9.6744 54.8834 9.68383 54.9419 9.67578C55.0187 9.67578 62.2237 8.51256 65.1738 10.2956C63.3741 11.2248 61.8267 12.5735 60.6633 14.2267C60.6284 14.2766 60.6098 14.3358 60.6098 14.3965C60.6098 14.4573 60.6284 14.5165 60.6633 14.5663C60.698 14.6149 60.7469 14.6516 60.8034 14.6714C60.8599 14.6912 60.9212 14.693 60.9788 14.6767C61.0384 14.6767 66.3846 13.1909 68.8403 14.6343C67.9757 15.0516 67.2036 15.6369 66.5696 16.3558C65.9355 17.0747 65.4523 17.9125 65.1483 18.8201C65.1306 18.8717 65.1285 18.9273 65.1422 18.9801C65.1558 19.0329 65.1846 19.0806 65.225 19.1173C65.2632 19.1556 65.312 19.1817 65.3651 19.1923C65.4183 19.2029 65.4734 19.1975 65.5234 19.1767C66.7939 18.7098 70.1022 17.7843 71.8075 18.4126C71.0224 18.6401 70.3145 19.0765 69.7601 19.675C69.2056 20.2735 68.8257 21.0112 68.6612 21.8088C68.6529 21.862 68.6597 21.9163 68.6808 21.9658C68.7019 22.0154 68.7364 22.058 68.7806 22.089C68.8272 22.1158 68.8802 22.1299 68.9341 22.1299C68.988 22.1299 69.0409 22.1158 69.0875 22.089C69.9309 21.6566 70.8705 21.4438 71.8187 21.4706C72.767 21.4973 73.693 21.7626 74.5104 22.2418C73.4458 22.6711 72.5343 23.4073 71.8928 24.356C71.8719 24.3952 71.8609 24.4389 71.8609 24.4834C71.8609 24.5278 71.8719 24.5715 71.8928 24.6107C71.9086 24.6526 71.9336 24.6903 71.9661 24.7212C71.9986 24.7521 72.0377 24.7752 72.0804 24.789C74.5901 25.6856 76.823 27.2157 78.5605 29.2296C74.3484 27.6079 60.0579 22.7258 55.0443 29.2296C54.9249 29.4079 52.1026 33.6447 53.3389 37.7966C53.356 37.8523 53.3895 37.9015 53.4352 37.9379C53.4808 37.9743 53.5365 37.996 53.5948 38.0003H53.6374C53.6885 37.9949 53.7373 37.9764 53.7792 37.9467C53.821 37.9169 53.8544 37.8769 53.8761 37.8305C53.8761 37.7711 56.3659 32.3032 58.9409 31.0381C58.7873 32.7128 59.0327 34.4 59.6572 35.9626C59.677 36.0185 59.714 36.0666 59.7631 36.1002C59.8121 36.1338 59.8705 36.151 59.93 36.1494C59.9913 36.1485 60.0507 36.1283 60.0997 36.0917C60.1487 36.0551 60.1848 36.004 60.2028 35.9456C60.2028 35.9032 61.6097 31.59 63.7073 30.4777C63.6139 31.272 63.6787 32.0768 63.8982 32.8461C64.1177 33.6154 64.4874 34.334 64.9863 34.9607C65.0205 35.0024 65.066 35.0333 65.1174 35.0499C65.1688 35.0664 65.2239 35.0679 65.2762 35.0541C65.3287 35.0435 65.3769 35.0177 65.4149 34.9799C65.4528 34.9422 65.4787 34.8942 65.4893 34.8418C65.7366 33.772 66.5637 31.14 67.7318 30.172C67.5536 30.8237 67.5529 31.511 67.7297 32.1631C67.9065 32.8152 68.2545 33.4086 68.7379 33.8824C68.7778 33.9181 68.8265 33.9424 68.879 33.9529C68.9315 33.9633 68.9859 33.9595 69.0364 33.9418C69.0873 33.9219 69.1318 33.8884 69.1648 33.8449C69.1979 33.8015 69.2184 33.7499 69.224 33.6956C69.3138 32.9283 69.5897 32.1942 70.0279 31.5566C70.4661 30.9191 71.0534 30.3973 71.7393 30.0362C71.5695 30.9633 71.6762 31.9197 72.0463 32.7871C72.0633 32.8279 72.0901 32.8638 72.1243 32.8919C72.1584 32.9201 72.199 32.9395 72.2424 32.9485C72.2854 32.9579 72.3301 32.9575 72.3729 32.9472C72.4158 32.9369 72.4557 32.917 72.4896 32.889C73.1633 32.3628 73.8993 31.9209 74.681 31.573C74.3395 31.8867 74.0745 32.2738 73.906 32.7049C73.7376 33.136 73.6702 33.5997 73.7089 34.0607C73.7784 34.8701 74.1676 35.6189 74.7911 36.1427C75.4146 36.6664 76.2214 36.9223 77.0343 36.8541C77.7025 36.7957 78.3324 36.518 78.8249 36.0645C79.5496 37.9494 82.3208 46.9834 77.6312 64.9324C71.3044 66.8258 70.2983 68.8127 69.4201 70.5702C69.1352 71.2088 68.7559 71.8012 68.2946 72.3278C67.8488 72.9552 67.5852 73.6928 67.5325 74.4596C67.4799 75.2264 67.6403 75.9929 67.9961 76.6749C69.1643 79.1032 73.0098 81.7693 84.6571 80.7928C92.672 80.1136 97.6089 78.2457 99.3313 75.24C99.6809 74.6643 99.8907 74.0153 99.944 73.3446C99.9973 72.6739 99.8926 72.0001 99.6382 71.3768C97.9329 67.3183 93.5673 64.0325 89.4063 63.6334C88.7413 57.0872 86.7034 41.7447 81.8774 35.6145C82.0815 35.6357 82.2872 35.6357 82.4913 35.6145C83.3048 35.5432 84.0568 35.1538 84.5826 34.5316C85.1084 33.9094 85.3651 33.105 85.2966 32.2947C85.2435 31.6857 85.0078 31.1066 84.6201 30.6327C84.2324 30.1588 83.7105 29.8119 83.1223 29.6371C84.7648 29.495 86.4195 29.6475 88.008 30.0871C88.0465 30.1059 88.0888 30.1156 88.1316 30.1156C88.1745 30.1156 88.2168 30.1059 88.2552 30.0871C88.2931 30.0636 88.3245 30.0311 88.3468 29.9926C88.3691 29.9541 88.3816 29.9108 88.3832 29.8664C88.4046 28.8104 88.1076 27.7723 87.5305 26.8862C88.3969 26.9676 89.2294 27.2625 89.9528 27.7442C90.6762 28.2259 91.2679 28.8794 91.6744 29.6456C91.698 29.6934 91.7343 29.7337 91.7795 29.7622C91.8246 29.7906 91.8768 29.8061 91.9302 29.8069C91.9837 29.8061 92.0358 29.7906 92.0809 29.7622C92.1261 29.7337 92.1624 29.6934 92.186 29.6456C92.4955 28.9583 92.6113 28.2002 92.5212 27.4524C92.4311 26.7045 92.1384 25.9952 91.6744 25.4003C93.2774 25.8673 95.2556 28.2871 95.9377 29.306C95.967 29.3481 96.0067 29.382 96.053 29.4043C96.0994 29.4266 96.1507 29.4366 96.202 29.4333C96.2561 29.4253 96.3067 29.4018 96.3476 29.3656C96.3885 29.3294 96.4179 29.2822 96.4323 29.2296C96.6849 28.3875 96.7682 27.5041 96.6775 26.63C96.5868 25.7558 96.3238 24.908 95.9036 24.1352C98.5212 24.39 101.744 28.3041 101.778 28.3805C101.817 28.4268 101.868 28.4605 101.926 28.4772C101.984 28.4938 102.045 28.4927 102.102 28.4739C102.161 28.455 102.211 28.4171 102.245 28.3662C102.279 28.3154 102.295 28.2546 102.29 28.1937C102.297 26.3321 101.859 24.4955 101.011 22.8362C104.174 23.0739 108.975 27.7437 109.026 27.7947C109.068 27.8358 109.122 27.8629 109.18 27.872C109.238 27.8812 109.297 27.8719 109.35 27.8456C109.403 27.8213 109.447 27.7813 109.476 27.7311C109.505 27.681 109.517 27.6231 109.512 27.5654C109.145 22.8362 104.55 19.6352 104.336 19.4909ZM89.0823 66.707C88.9707 67.5991 88.6034 68.4403 88.0243 69.1299C87.4451 69.8196 86.6787 70.3285 85.8167 70.5957C83.3951 71.4447 79.976 70.8844 78.3559 69.373C78.0259 69.1062 77.7793 68.7512 77.6448 68.3496C77.5104 67.9481 77.4938 67.5166 77.597 67.106L77.8017 66.3589C79.8989 67.135 82.1325 67.4787 84.3671 67.3692C86.1077 67.2994 87.754 66.5634 88.963 65.3145C89.0397 66.0872 89.0738 66.5796 89.0823 66.707ZM88.8862 64.4995C85.9616 68.4136 79.2853 66.2825 77.9466 65.7985C78.3389 64.3551 78.6828 62.9683 78.9784 61.6381C80.4852 62.5645 82.2545 62.9759 84.0176 62.8098C85.6155 62.641 87.1575 62.1282 88.5366 61.307C88.6816 62.5466 88.801 63.6334 88.8862 64.4995ZM88.4599 60.6872C83.344 63.7438 79.831 61.5362 79.0807 61.0353C79.3706 59.7023 79.6093 58.4287 79.8225 57.2145C81.1972 57.6565 82.6455 57.8267 84.0858 57.7155C85.4028 57.6115 86.6808 57.2201 87.8289 56.5692C88.1103 58.0381 88.2979 59.473 88.4599 60.6872ZM79.9333 56.6372C80.1465 55.3636 80.317 54.1409 80.4449 52.9947C81.5731 53.4056 82.7781 53.565 83.9749 53.4617C85.0931 53.3673 86.1779 53.0342 87.1553 52.4853C87.3856 53.6655 87.5817 54.8287 87.7607 55.9579C86.5779 56.6059 85.2724 57.001 83.9275 57.118C82.5826 57.235 81.2281 57.0712 79.9504 56.6372H79.9333ZM80.5046 52.3919C80.6154 51.3051 80.7007 50.2692 80.7519 49.2928C81.7151 49.6114 82.7332 49.7326 83.7447 49.6494C84.6811 49.5664 85.587 49.2763 86.3965 48.8004C86.6267 49.8107 86.8484 50.8381 87.0445 51.8485C86.0667 52.4171 84.9739 52.7617 83.8456 52.8572C82.7173 52.9526 81.5818 52.7966 80.5217 52.4004L80.5046 52.3919ZM80.786 48.69C80.786 47.7815 80.8371 46.9239 80.8286 46.1428C81.4584 46.2569 82.1006 46.2883 82.7386 46.2362C83.723 46.1701 84.6687 45.8287 85.4671 45.2513C85.7484 46.2362 86.0128 47.2466 86.2515 48.2654C85.4293 48.7269 84.516 49.0046 83.5752 49.0794C82.6343 49.1541 81.6884 49.0242 80.803 48.6985L80.786 48.69ZM80.8286 45.523C80.8286 44.5126 80.7604 43.5872 80.6837 42.7381C81.1421 42.8414 81.6139 42.8729 82.082 42.8315C82.9269 42.7556 83.7377 42.4631 84.4354 41.9824C84.7338 42.8315 85.0237 43.6805 85.288 44.606C84.6536 45.0608 83.9305 45.3782 83.1654 45.5376C82.4002 45.697 81.61 45.6949 80.8457 45.5315L80.8286 45.523ZM80.6325 42.1268C80.5586 41.4136 80.4733 40.7598 80.3767 40.1655C80.6461 40.1917 80.9174 40.1917 81.1867 40.1655C81.974 40.1108 82.7247 39.8141 83.3354 39.3164C83.6509 39.9871 83.9408 40.7004 84.2307 41.439C83.727 41.8201 83.1423 42.081 82.5214 42.2017C81.9006 42.3224 81.2602 42.2997 80.6496 42.1352L80.6325 42.1268ZM80.2829 39.5796C80.155 38.9004 80.0271 38.3145 79.8992 37.8135C80.075 37.8306 80.2521 37.8306 80.4279 37.8135C81.0714 37.7697 81.6772 37.4952 82.1332 37.0409C82.4891 37.5882 82.8136 38.1552 83.1052 38.739C82.7305 39.0793 82.2842 39.3322 81.7989 39.479C81.3136 39.6259 80.8015 39.6632 80.3 39.5881L80.2829 39.5796ZM79.7287 37.2022C79.5667 36.6418 79.4217 36.2258 79.3109 35.9371H79.6775C80.1298 35.8958 80.5669 35.7536 80.9565 35.5211C81.2606 35.8467 81.5453 36.1898 81.8092 36.5485C81.5545 36.8304 81.2295 37.0401 80.8671 37.1565C80.5047 37.2728 80.1178 37.2915 79.7458 37.2107L79.7287 37.2022ZM80.8457 34.9183C80.5658 35.1093 80.2505 35.243 79.9182 35.3115C79.5859 35.38 79.2432 35.382 78.9101 35.3173C78.3824 35.2094 77.9038 34.9345 77.5458 34.5336C77.1877 34.1327 76.9695 33.6273 76.9235 33.0928C76.8941 32.772 76.9288 32.4486 77.0253 32.1411C77.1219 31.8337 77.2785 31.5483 77.4862 31.3013C77.6943 31.044 77.9528 30.8315 78.246 30.6768C78.5392 30.5221 78.8609 30.4284 79.1915 30.4013H79.5582C79.8745 30.4171 80.1845 30.495 80.4705 30.6305C80.8663 30.8163 81.2061 31.1023 81.456 31.4599C81.7059 31.8175 81.8571 32.2342 81.8944 32.6683C81.9377 33.1019 81.8651 33.5392 81.6839 33.9358C81.5027 34.3325 81.2194 34.6743 80.8627 34.9268L80.8457 34.9183ZM83.4037 7.89276C84.4975 7.47075 85.6457 7.20491 86.8143 7.10314C88.0354 6.97676 89.2695 7.11877 90.4295 7.51917C88.6475 8.01162 84.4609 9.35315 83.4037 11.4079C83.3764 11.4511 83.3619 11.5011 83.3619 11.5522C83.3619 11.6033 83.3764 11.6533 83.4037 11.6965C83.4303 11.7393 83.4683 11.7738 83.5134 11.7963C83.5586 11.8187 83.6091 11.8283 83.6594 11.8239C85.023 11.8564 86.3579 12.2208 87.5476 12.8852C86.0298 13.1654 82.9176 13.9296 82.0138 15.6786C81.9891 15.7212 81.9761 15.7695 81.9761 15.8187C81.9761 15.8679 81.9891 15.9162 82.0138 15.9588C82.0401 16.0024 82.0777 16.0381 82.1228 16.0621C82.1679 16.086 82.2186 16.0973 82.2696 16.0947C83.5815 16.1007 84.846 16.5838 85.8252 17.4532C84.5292 17.5635 81.6045 17.9796 80.8542 19.3975C80.8255 19.4433 80.8102 19.4963 80.8102 19.5503C80.8102 19.6044 80.8255 19.6573 80.8542 19.7032C80.8847 19.7496 80.9291 19.7853 80.9812 19.8052C81.0332 19.825 81.0903 19.8279 81.1441 19.8135C81.6761 19.7071 82.226 19.7286 82.748 19.8763C83.27 20.0239 83.7491 20.2935 84.1455 20.6626C83.3249 20.677 82.5219 20.9017 81.8139 21.3152C81.106 21.7286 80.517 22.3168 80.1039 23.023C80.0768 23.0679 80.0625 23.1192 80.0625 23.1715C80.0625 23.2239 80.0768 23.2753 80.1039 23.3201C80.1332 23.3642 80.1742 23.3994 80.2224 23.4219C80.2705 23.4444 80.3239 23.4532 80.3767 23.4475C81.1825 23.3921 81.9886 23.5503 82.713 23.906C81.2647 25.3007 80.1639 27.0133 79.4985 28.9069C78.8931 24.8315 77.0002 11.1192 83.4719 7.90126L83.4037 7.89276ZM72.5152 24.4494C73.2048 23.6343 74.108 23.0259 75.1243 22.6918C75.1755 22.6773 75.2217 22.649 75.2578 22.6101C75.2939 22.5711 75.3185 22.523 75.329 22.4711C75.3373 22.4188 75.3313 22.3652 75.3118 22.316C75.2924 22.2667 75.26 22.2235 75.2181 22.1909C74.3742 21.5609 73.3804 21.16 72.3341 21.0275C71.2878 20.8951 70.2249 21.0356 69.2495 21.4352C69.9402 19.3126 72.3703 18.8881 72.4811 18.8371C72.5356 18.8302 72.5868 18.807 72.6279 18.7707C72.6689 18.7343 72.698 18.6864 72.7113 18.6333C72.7239 18.58 72.7218 18.5242 72.7053 18.472C72.6888 18.4197 72.6585 18.3728 72.6175 18.3362C71.0316 17.0116 67.2543 18.039 65.7963 18.506C66.5101 16.931 67.7999 15.6862 69.403 15.0248C69.4515 15.0085 69.4946 14.9793 69.5276 14.9404C69.5607 14.9015 69.5825 14.8544 69.5906 14.8041C69.5993 14.7546 69.5953 14.7037 69.5789 14.6562C69.5625 14.6087 69.5342 14.5661 69.4968 14.5324C67.5527 12.8767 63.3236 13.5815 61.533 13.9805C62.6349 12.5477 64.0843 11.4171 65.7451 10.6946C65.7931 10.6775 65.8357 10.6481 65.8687 10.6093C65.9016 10.5706 65.9237 10.5239 65.9327 10.4739C65.9431 10.4244 65.9399 10.373 65.9234 10.3252C65.9069 10.2773 65.8777 10.2348 65.8389 10.2022C63.5282 8.26634 57.7387 8.78426 55.607 9.04746C58.8301 5.93991 64.1336 5.95691 64.1848 5.95691C73.4958 6.67012 77.904 24.2881 78.9101 28.9833C77.1926 26.9804 75.0088 25.4267 72.5493 24.4579L72.5152 24.4494ZM72.3873 32.3032C72.161 31.4691 72.161 30.5901 72.3873 29.756C72.4032 29.7056 72.4044 29.6517 72.3908 29.6006C72.3772 29.5496 72.3494 29.5033 72.3106 29.4673C72.2735 29.4301 72.2267 29.404 72.1754 29.392C72.1242 29.38 72.0705 29.3826 72.0207 29.3994C71.1942 29.6927 70.4574 30.1927 69.881 30.8514C69.3046 31.5101 68.9081 32.3054 68.7294 33.1607C68.4137 32.666 68.2233 32.1024 68.1743 31.5183C68.1252 30.9342 68.2192 30.347 68.448 29.8069C68.477 29.7628 68.4925 29.7111 68.4925 29.6584C68.4925 29.6056 68.477 29.5539 68.448 29.5098C68.4115 29.4689 68.364 29.4392 68.3112 29.4242C68.2584 29.4092 68.2023 29.4094 68.1496 29.4249C66.4955 29.9088 65.4723 32.923 65.1056 34.222C64.367 33.018 64.1056 31.5831 64.3723 30.1975C64.3829 30.1487 64.3806 30.0981 64.3657 30.0505C64.3507 30.0029 64.3237 29.9599 64.2871 29.9258C64.2519 29.8885 64.2065 29.8621 64.1566 29.8501C64.1066 29.838 64.0542 29.8407 64.0057 29.8579C61.9764 30.4437 60.5354 33.5937 59.9556 35.0966C59.4864 33.7031 59.3664 32.2166 59.606 30.7664C59.6201 30.7171 59.6205 30.665 59.6069 30.6156C59.5934 30.5662 59.5665 30.5214 59.5293 30.4862C59.4929 30.4505 59.4476 30.4254 59.398 30.4134C59.3485 30.4014 59.2966 30.4031 59.2479 30.4183C56.8519 31.1315 54.5838 35.2579 53.7226 36.9815C53.1002 33.339 55.5047 29.722 55.5217 29.6966C56.9713 27.8286 59.299 26.9881 61.9593 26.7588C67.9705 26.2494 75.6018 28.8984 78.4241 29.9598C76.2528 30.2497 74.1828 31.0533 72.3873 32.3032ZM77.3327 30.7324L77.1878 30.8683H76.932L77.3327 30.7324ZM74.2376 34.1286C74.2096 33.8024 74.2465 33.4738 74.3462 33.1618C74.446 32.8498 74.6066 32.5605 74.8189 32.3104C75.0312 32.0604 75.291 31.8545 75.5834 31.7046C75.8758 31.5548 76.195 31.4639 76.5227 31.4371H76.7785V31.4796C76.7785 31.522 76.7359 31.573 76.7103 31.6154C76.652 31.7311 76.6007 31.8502 76.5568 31.972L76.5056 32.1503C76.4711 32.27 76.4455 32.392 76.4289 32.5154V32.6768C76.4119 32.8603 76.4119 33.0451 76.4289 33.2286C76.442 33.3833 76.4677 33.5366 76.5056 33.6871C76.5056 33.7381 76.5057 33.789 76.5483 33.84L76.6506 34.1286L76.7273 34.29C76.7677 34.3747 76.8133 34.457 76.8638 34.5362L76.9661 34.6975C77.0153 34.7718 77.0694 34.8427 77.1281 34.9098L77.256 35.0541C77.317 35.1234 77.3825 35.1886 77.4521 35.2494L77.597 35.3683C77.6701 35.4296 77.7471 35.4863 77.8273 35.5381L77.9722 35.6315C78.0951 35.701 78.2234 35.7607 78.3559 35.8098C77.9619 36.1431 77.4728 36.345 76.9575 36.3871C76.6234 36.4185 76.2864 36.3827 75.9664 36.282C75.6464 36.1812 75.35 36.0175 75.0948 35.8005C74.8395 35.5836 74.6306 35.3178 74.4804 35.0189C74.3302 34.7201 74.2419 34.3942 74.2205 34.0607L74.2376 34.1286ZM99.0925 71.7334C99.3102 72.2839 99.3966 72.8772 99.3448 73.4665C99.293 74.0559 99.1045 74.6252 98.7941 75.1296C97.6771 77.0655 94.3006 79.5532 84.5803 80.3853C72.6431 81.3957 69.3775 78.441 68.4822 76.5815C68.1821 76.0022 68.0429 75.3537 68.0788 74.7029C68.1148 74.052 68.3247 73.4226 68.6868 72.8796C69.1878 72.3124 69.6016 71.6743 69.9146 70.9862C70.7673 69.2881 71.6626 67.5391 77.4265 65.7476C77.3157 66.1806 77.1963 66.5966 77.0769 67.0551C76.9362 67.5657 76.9484 68.1062 77.112 68.61C77.2756 69.1138 77.5835 69.559 77.9978 69.8909C78.8501 70.5676 79.828 71.0703 80.8755 71.3704C81.9231 71.6705 83.0197 71.7621 84.1028 71.64C84.7651 71.5838 85.418 71.447 86.0469 71.2325C87.0128 70.9298 87.8707 70.3565 88.5179 69.581C89.1651 68.8055 89.5742 67.8608 89.6962 66.8598V66.8004C89.6962 66.6221 89.6195 65.7391 89.4831 64.3721C91.5613 64.7077 93.5242 65.5489 95.1975 66.8212C96.8709 68.0935 98.2029 69.7575 99.0755 71.6655L99.0925 71.7334ZM84.7167 32.5069C84.7448 32.8325 84.7082 33.1604 84.6089 33.4719C84.5097 33.7834 84.3498 34.0724 84.1384 34.3223C83.927 34.5723 83.6682 34.7783 83.3768 34.9286C83.0854 35.079 82.7671 35.1707 82.4401 35.1985C82.1541 35.226 81.8655 35.203 81.5875 35.1305C81.6387 35.0881 81.6728 35.0371 81.7239 34.9862L81.7921 34.9098C81.8689 34.8164 81.9456 34.7145 82.0138 34.6126C82.0735 34.5192 82.1247 34.4173 82.1758 34.3239L82.227 34.2135C82.227 34.1371 82.2867 34.0607 82.3123 33.9758C82.3378 33.8909 82.3122 33.8909 82.3549 33.8485C82.3798 33.7705 82.3997 33.6911 82.4146 33.6107V33.4834V33.2286C82.4185 33.1891 82.4185 33.1493 82.4146 33.1098C82.4231 32.9826 82.4231 32.8549 82.4146 32.7277C82.4146 32.6003 82.4146 32.4815 82.3549 32.3541C82.2952 32.2268 82.3549 32.2777 82.3549 32.2353C82.3549 32.1928 82.3122 32.0739 82.2866 31.9975L82.2355 31.8617C82.2078 31.7894 82.1765 31.7185 82.1417 31.6494C82.1223 31.6052 82.0995 31.5626 82.0735 31.522C82.0735 31.4541 81.9968 31.3862 81.9541 31.3183L81.8774 31.2079C81.8251 31.1286 81.7651 31.0547 81.6983 30.9871L81.6472 30.9192C81.5661 30.8329 81.4808 30.7507 81.3914 30.673L81.2891 30.5966L81.1441 30.4777C81.3984 30.3669 81.6691 30.2981 81.9456 30.2739C82.5983 30.2019 83.2532 30.3888 83.7686 30.794C84.284 31.1992 84.6185 31.7901 84.6997 32.439L84.7167 32.5069ZM100.525 22.3182C100.475 22.3228 100.426 22.3401 100.385 22.3683C100.343 22.3965 100.309 22.4348 100.286 22.4796C100.262 22.5237 100.249 22.5734 100.249 22.6239C100.249 22.6744 100.262 22.7241 100.286 22.7682C101.139 24.1841 101.626 25.7887 101.702 27.4381C100.534 26.1645 97.7539 23.4475 95.4176 23.6513C95.3681 23.6548 95.3205 23.6717 95.28 23.7001C95.2394 23.7285 95.2074 23.7674 95.1874 23.8126C95.1627 23.8567 95.1498 23.9064 95.1498 23.9569C95.1498 24.0075 95.1627 24.0571 95.1874 24.1013C96.0244 25.4432 96.3285 27.0479 96.04 28.6013C95.1874 27.4466 92.8681 24.7041 90.9667 24.8739C90.9113 24.8763 90.858 24.8955 90.8138 24.9289C90.7696 24.9623 90.7367 25.0082 90.7194 25.0607C90.6984 25.1112 90.6937 25.1669 90.7059 25.2201C90.7182 25.2734 90.7467 25.3215 90.7876 25.3579C91.2501 25.8288 91.5885 26.4061 91.773 27.0386C91.9574 27.671 91.9822 28.3391 91.845 28.9833C91.3154 28.178 90.5876 27.5211 89.7309 27.0752C88.8741 26.6294 87.917 26.4094 86.9507 26.4362C86.8968 26.4396 86.8448 26.4571 86.7999 26.4869C86.755 26.5167 86.7188 26.5578 86.6949 26.606C86.674 26.6547 86.6668 26.7081 86.6744 26.7605C86.6819 26.8129 86.7037 26.8623 86.7375 26.9032C87.3216 27.6859 87.6758 28.6147 87.7607 29.5862C86.173 29.1921 84.5302 29.0658 82.9006 29.2126C82.1109 29.2851 81.3274 29.4128 80.5558 29.5947C83.9664 26.4956 96.6284 15.6446 103.995 20.0343C104.038 20.0343 108.037 22.8447 108.83 26.8862C107.346 25.4428 103.279 22.0381 100.525 22.2758V22.3182Z" fill="#999999"/>
</g>
<defs>
<filter id="filter0_d_1_239" x="0" y="0" width="113.513" height="88.9997" filterUnits="userSpaceOnUse" color-interpolation-filters="sRGB">
<feFlood flood-opacity="0" result="BackgroundImageFix"/>
<feColorMatrix in="SourceAlpha" type="matrix" values="0 0 0 0 0 0 0 0 0 0 0 0 0 0 0 0 0 0 127 0" result="hardAlpha"/>
<feOffset dy="4"/>
<feGaussianBlur stdDeviation="2"/>
<feComposite in2="hardAlpha" operator="out"/>
<feColorMatrix type="matrix" values="0 0 0 0 0 0 0 0 0 0 0 0 0 0 0 0 0 0 0.25 0"/>
<feBlend mode="normal" in2="BackgroundImageFix" result="effect1_dropShadow_1_239"/>
<feBlend mode="normal" in="SourceGraphic" in2="effect1_dropShadow_1_239" result="shape"/>
</filter>
</defs>
</svg>
